M48
;GenerationSoftware,Autodesk,EAGLE,9.6.2*%
;CreationDate,2020-10-05T09:07:24Z*%
FMAT,2
ICI,OFF
METRIC,TZ,000.000
T12C0.350
T11C0.610
T10C0.700
T9C0.800
T8C0.813
T7C0.850
T6C0.914
T5C1.016
T4C1.118
T3C2.000
T2C3.302
%
G90
M71
T2
X122555Y41021
T3
X1905Y42545
X1905Y1905
X143510Y42545
X143510Y1905
X74930Y42545
X74930Y1905
T4
X120015Y23495
X122555Y23495
X125095Y23495
T5
X30480Y1905
X27940Y42545
X27940Y1905
X134620Y24765
X132080Y24765
X129540Y24765
X33020Y42545
X33020Y1905
X35560Y1905
X38100Y1905
X40640Y1905
X43180Y1905
X45720Y1905
X53340Y1905
X55880Y1905
X58420Y1905
X96520Y42545
X66040Y42545
X68580Y42545
X71120Y42545
X78740Y42545
X81280Y42545
X83820Y42545
X86360Y42545
X88900Y42545
X91440Y42545
X93980Y42545
X30480Y42545
X60960Y42545
X58420Y42545
X55880Y42545
X53340Y42545
X45720Y42545
X43180Y42545
X40640Y42545
X38100Y42545
X35560Y42545
X63500Y42545
X63500Y1905
X60960Y1905
X96520Y1905
X93980Y1905
X91440Y1905
X88900Y1905
X86360Y1905
X83820Y1905
X81280Y1905
X78740Y1905
X71120Y1905
X68580Y1905
X66040Y1905
T6
X137160Y19685
X129540Y19685
T7
X104140Y42545
X106680Y42545
X109220Y42545
X111760Y42545
X114300Y42545
T8
X40640Y40005
X38100Y12065
X60960Y13970
X40640Y12065
X27940Y12065
X30480Y12065
X43180Y12065
X45720Y12065
X96520Y13970
X99060Y13970
X27940Y40005
X30480Y40005
X33020Y40005
X35560Y40005
X38100Y40005
X88900Y13970
X43180Y40005
X45720Y40005
X48260Y40005
X48260Y32385
X38100Y32385
X40640Y32385
X35560Y32385
X33020Y32385
X45720Y32385
X27940Y32385
X30480Y32385
X43180Y32385
X93980Y13970
X91440Y13970
X93980Y22860
X91440Y30480
X93980Y30480
X96520Y30480
X99060Y30480
X99060Y22860
X96520Y22860
X86360Y22860
X88900Y22860
X83820Y22860
X81280Y22860
X88900Y30480
X91440Y22860
X78740Y22860
X76200Y22860
X73660Y13970
X71120Y13970
X68580Y13970
X66040Y13970
X63500Y13970
X55880Y13970
X93980Y21590
X83820Y13970
X81280Y13970
X78740Y13970
X76200Y13970
X76200Y21590
X78740Y21590
X88900Y21590
X86360Y21590
X91440Y21590
X86360Y13970
X81280Y21590
X83820Y21590
X96520Y21590
X99060Y21590
X76200Y30480
X78740Y30480
X81280Y30480
X83820Y30480
X86360Y30480
X130990Y34335
X104775Y24130
X104775Y21590
X112395Y24130
X112395Y21590
X104775Y16510
X104775Y19050
X112395Y19050
X112395Y16510
X127000Y19685
X135890Y31385
X135890Y37385
X73660Y4318
X73660Y11938
X101600Y40005
X101600Y32385
X48260Y4445
X48260Y12065
X142875Y19685
X107315Y13335
X104775Y13335
X112395Y7620
X104775Y7620
X112395Y10160
X104775Y10160
X107315Y27305
X104775Y27305
X76200Y40005
X140335Y19685
X129540Y28575
X142240Y28575
X138557Y15875
X142113Y15875
X129667Y15875
X133223Y15875
X119380Y19685
X40640Y4445
X60960Y32385
X58420Y32385
X71120Y32385
X68580Y32385
X55880Y32385
X53340Y32385
X45720Y4445
X43180Y4445
X66040Y32385
X38100Y4445
X35560Y4445
X33020Y4445
X30480Y4445
X27940Y4445
X25400Y4445
X25400Y12065
X35560Y12065
X60960Y40005
X76200Y32385
X22860Y4445
X22860Y12065
X50800Y40005
X50800Y32385
X53340Y40005
X55880Y40005
X58420Y40005
X33020Y12065
X63500Y40005
X66040Y40005
X68580Y40005
X71120Y40005
X73660Y40005
X73660Y32385
X63500Y32385
X99060Y40005
X58420Y4445
X60960Y4445
X63500Y4445
X66040Y4445
X68580Y4445
X71120Y4445
X78740Y32385
X81280Y32385
X93980Y32385
X96520Y32385
X83820Y32385
X86360Y32385
X91440Y32385
X88900Y32385
X99060Y32385
X55880Y4445
X96520Y40005
X93980Y40005
X91440Y40005
X88900Y40005
X86360Y40005
X83820Y40005
X81280Y40005
X78740Y40005
X96520Y11938
X93980Y11938
X81280Y11938
X78740Y11938
X91440Y11938
X88900Y11938
X83820Y11938
X35560Y30480
X25400Y22860
X27940Y22860
X40640Y22860
X43180Y22860
X30480Y22860
X33020Y22860
X38100Y22860
X35560Y22860
X45720Y22860
X48260Y22860
X48260Y30480
X45720Y30480
X43180Y30480
X40640Y30480
X38100Y30480
X58420Y13970
X33020Y30480
X30480Y30480
X27940Y30480
X25400Y30480
X71120Y12065
X68580Y12065
X55880Y12065
X53340Y12065
X66040Y12065
X63500Y12065
X58420Y12065
X60960Y12065
X50800Y12065
X50800Y4445
X53340Y4445
X58420Y30480
X53340Y22860
X66040Y22860
X68580Y22860
X55880Y22860
X58420Y22860
X63500Y22860
X60960Y22860
X71120Y22860
X73660Y22860
X73660Y30480
X71120Y30480
X68580Y30480
X66040Y30480
X63500Y30480
X60960Y30480
X76200Y11938
X55880Y30480
X53340Y30480
X50800Y30480
X73660Y21590
X71120Y21590
X58420Y21590
X55880Y21590
X68580Y21590
X66040Y21590
X60960Y21590
X63500Y21590
X53340Y21590
X50800Y21590
X50800Y13970
X53340Y13970
X48260Y13970
X50800Y22860
X86360Y11938
X76200Y4318
X78740Y4318
X81280Y4318
X83820Y4318
X86360Y4318
X88900Y4318
X91440Y4318
X93980Y4318
X96520Y4318
X48260Y21590
X45720Y21590
X33020Y21590
X30480Y21590
X40640Y21590
X43180Y21590
X45720Y13970
X43180Y13970
X40640Y13970
X38100Y13970
X35560Y13970
X33020Y13970
X30480Y13970
X27940Y13970
X25400Y13970
X25400Y21590
X27940Y21590
X38100Y21590
X35560Y21590
T9
X5080Y4445
X5080Y6985
X5080Y9525
X20320Y12065
X5080Y12065
X5080Y14605
X5080Y17145
X5080Y19685
X5080Y22225
X5080Y24765
X5080Y27305
X5080Y29845
X5080Y32385
X5080Y34925
X5080Y37465
X5080Y40005
X20320Y6985
X20320Y4445
X20320Y40005
X20320Y37465
X20320Y34925
X20320Y32385
X20320Y29845
X20320Y27305
X20320Y22225
X20320Y19685
X20320Y17145
X20320Y14605
X20320Y9525
X20320Y24765
T10
X118785Y16510
X123785Y16510
T11
X106045Y3175
X108585Y3175
X111125Y3175
T12
X48260Y1905
X102870Y34290
X48260Y42545
X99060Y1905
X18415Y6985
X18415Y14605
X15875Y34925
X143510Y39370
X133985Y27305
X143510Y5080
X121285Y13970
X116840Y24765
X109220Y37465
X99060Y42545
X121285Y3175
X96520Y26670
X86360Y17780
X24765Y1905
X24765Y42545
X1905Y39370
X43180Y27305
X1905Y5080
X11430Y36195
X9525Y9525
X72390Y7620
X18415Y12065
X9525Y12065
X24638Y8890
X48387Y8890
X10160Y13335
X71120Y28575
X45720Y28575
X68580Y27305
X27940Y19685
X66040Y26035
X40640Y26035
X63500Y24765
X38100Y24765
X60960Y15875
X35560Y15875
X58420Y17145
X33020Y17145
X55880Y18415
X30480Y18415
X53340Y19685
M30