G04 EAGLE Gerber RS-274X export*
G75*
%MOMM*%
%FSLAX34Y34*%
%LPD*%
%INVias*%
%IPPOS*%
%AMOC8*
5,1,8,0,0,1.08239X$1,22.5*%
G01*
%ADD10C,0.756400*%


D10*
X19050Y50800D03*
X19050Y393700D03*
X247650Y425450D03*
X247650Y19050D03*
X863600Y177800D03*
X965200Y266700D03*
X1212850Y31750D03*
X990600Y425450D03*
X1092200Y374650D03*
X1168400Y247650D03*
X1212850Y139700D03*
X1435100Y50800D03*
X1339850Y273050D03*
X1435100Y393700D03*
X158750Y349250D03*
X184150Y146050D03*
X184150Y69850D03*
X990600Y19050D03*
X482600Y425450D03*
X482600Y19050D03*
X1028700Y342900D03*
X279400Y196850D03*
X533400Y196850D03*
X304800Y184150D03*
X558800Y184150D03*
X330200Y171450D03*
X584200Y171450D03*
X355600Y158750D03*
X609600Y158750D03*
X381000Y247650D03*
X635000Y247650D03*
X406400Y260350D03*
X660400Y260350D03*
X431800Y273050D03*
X685800Y273050D03*
X457200Y285750D03*
X711200Y285750D03*
X101600Y133350D03*
X483870Y88900D03*
X246380Y88900D03*
X95250Y120650D03*
X184150Y120650D03*
X723900Y76200D03*
X95250Y95250D03*
X114300Y361950D03*
M02*
