G04 EAGLE Gerber RS-274X export*
G75*
%MOMM*%
%FSLAX34Y34*%
%LPD*%
%INSoldermask Top*%
%IPPOS*%
%AMOC8*
5,1,8,0,0,1.08239X$1,22.5*%
G01*
%ADD10C,2.203200*%
%ADD11R,1.511200X1.511200*%
%ADD12C,1.511200*%
%ADD13C,1.524000*%
%ADD14C,1.727200*%
%ADD15R,1.561200X1.561200*%
%ADD16C,1.561200*%
%ADD17C,1.981200*%
%ADD18C,1.727200*%
%ADD19C,1.524000*%
%ADD20C,1.879600*%
%ADD21C,3.505200*%
%ADD22C,1.411200*%
%ADD23P,1.951982X8X22.500000*%
%ADD24C,1.803400*%
%ADD25P,1.649562X8X202.500000*%
%ADD26P,1.649562X8X22.500000*%
%ADD27P,2.281895X8X22.500000*%
%ADD28C,1.320800*%
%ADD29C,0.959600*%


D10*
X19050Y19050D03*
X19050Y425450D03*
X1435100Y425450D03*
X1435100Y19050D03*
X749300Y425450D03*
X749300Y19050D03*
D11*
X50800Y400050D03*
D12*
X50800Y374650D03*
X50800Y349250D03*
X50800Y323850D03*
X50800Y298450D03*
X50800Y273050D03*
X50800Y247650D03*
X50800Y222250D03*
X50800Y196850D03*
X50800Y171450D03*
X50800Y146050D03*
X50800Y120650D03*
X50800Y95250D03*
X50800Y69850D03*
X50800Y44450D03*
X203200Y44450D03*
X203200Y69850D03*
X203200Y95250D03*
X203200Y120650D03*
X203200Y146050D03*
X203200Y171450D03*
X203200Y196850D03*
X203200Y222250D03*
X203200Y247650D03*
X203200Y273050D03*
X203200Y298450D03*
X203200Y323850D03*
X203200Y349250D03*
X203200Y374650D03*
X203200Y400050D03*
D13*
X254000Y228600D03*
X279400Y228600D03*
X406400Y228600D03*
X431800Y228600D03*
X304800Y228600D03*
X330200Y228600D03*
X381000Y228600D03*
X355600Y228600D03*
X457200Y228600D03*
X482600Y228600D03*
X482600Y304800D03*
X457200Y304800D03*
X431800Y304800D03*
X406400Y304800D03*
X381000Y304800D03*
X355600Y304800D03*
X330200Y304800D03*
X304800Y304800D03*
X279400Y304800D03*
X254000Y304800D03*
X711200Y120650D03*
X685800Y120650D03*
X558800Y120650D03*
X533400Y120650D03*
X660400Y120650D03*
X635000Y120650D03*
X584200Y120650D03*
X609600Y120650D03*
X508000Y120650D03*
X508000Y44450D03*
X533400Y44450D03*
X558800Y44450D03*
X584200Y44450D03*
X609600Y44450D03*
X635000Y44450D03*
X660400Y44450D03*
X685800Y44450D03*
X711200Y44450D03*
X787400Y323850D03*
X812800Y323850D03*
X939800Y323850D03*
X965200Y323850D03*
X838200Y323850D03*
X863600Y323850D03*
X914400Y323850D03*
X889000Y323850D03*
X990600Y323850D03*
X990600Y400050D03*
X965200Y400050D03*
X939800Y400050D03*
X914400Y400050D03*
X889000Y400050D03*
X863600Y400050D03*
X838200Y400050D03*
X812800Y400050D03*
X787400Y400050D03*
X965200Y119380D03*
X939800Y119380D03*
X812800Y119380D03*
X787400Y119380D03*
X914400Y119380D03*
X889000Y119380D03*
X838200Y119380D03*
X863600Y119380D03*
X762000Y119380D03*
X762000Y43180D03*
X787400Y43180D03*
X812800Y43180D03*
X838200Y43180D03*
X863600Y43180D03*
X889000Y43180D03*
X914400Y43180D03*
X939800Y43180D03*
X965200Y43180D03*
X482600Y215900D03*
X457200Y215900D03*
X330200Y215900D03*
X304800Y215900D03*
X431800Y215900D03*
X406400Y215900D03*
X355600Y215900D03*
X381000Y215900D03*
X279400Y215900D03*
X254000Y215900D03*
X254000Y139700D03*
X279400Y139700D03*
X304800Y139700D03*
X330200Y139700D03*
X355600Y139700D03*
X381000Y139700D03*
X406400Y139700D03*
X431800Y139700D03*
X457200Y139700D03*
X482600Y139700D03*
X508000Y228600D03*
X533400Y228600D03*
X660400Y228600D03*
X685800Y228600D03*
X558800Y228600D03*
X584200Y228600D03*
X635000Y228600D03*
X609600Y228600D03*
X711200Y228600D03*
X736600Y228600D03*
X736600Y304800D03*
X711200Y304800D03*
X685800Y304800D03*
X660400Y304800D03*
X635000Y304800D03*
X609600Y304800D03*
X584200Y304800D03*
X558800Y304800D03*
X533400Y304800D03*
X508000Y304800D03*
X736600Y215900D03*
X711200Y215900D03*
X584200Y215900D03*
X558800Y215900D03*
X685800Y215900D03*
X660400Y215900D03*
X609600Y215900D03*
X635000Y215900D03*
X533400Y215900D03*
X508000Y215900D03*
X508000Y139700D03*
X533400Y139700D03*
X558800Y139700D03*
X584200Y139700D03*
X609600Y139700D03*
X635000Y139700D03*
X660400Y139700D03*
X685800Y139700D03*
X711200Y139700D03*
X736600Y139700D03*
X762000Y228600D03*
X787400Y228600D03*
X914400Y228600D03*
X939800Y228600D03*
X812800Y228600D03*
X838200Y228600D03*
X889000Y228600D03*
X863600Y228600D03*
X965200Y228600D03*
X990600Y228600D03*
X990600Y304800D03*
X965200Y304800D03*
X939800Y304800D03*
X914400Y304800D03*
X889000Y304800D03*
X863600Y304800D03*
X838200Y304800D03*
X812800Y304800D03*
X787400Y304800D03*
X762000Y304800D03*
X990600Y215900D03*
X965200Y215900D03*
X838200Y215900D03*
X812800Y215900D03*
X939800Y215900D03*
X914400Y215900D03*
X863600Y215900D03*
X889000Y215900D03*
X787400Y215900D03*
X762000Y215900D03*
X762000Y139700D03*
X787400Y139700D03*
X812800Y139700D03*
X838200Y139700D03*
X863600Y139700D03*
X889000Y139700D03*
X914400Y139700D03*
X939800Y139700D03*
X965200Y139700D03*
X990600Y139700D03*
X279400Y323850D03*
X304800Y323850D03*
X431800Y323850D03*
X457200Y323850D03*
X330200Y323850D03*
X355600Y323850D03*
X406400Y323850D03*
X381000Y323850D03*
X482600Y323850D03*
X482600Y400050D03*
X457200Y400050D03*
X431800Y400050D03*
X406400Y400050D03*
X381000Y400050D03*
X355600Y400050D03*
X330200Y400050D03*
X304800Y400050D03*
X279400Y400050D03*
X457200Y120650D03*
X431800Y120650D03*
X304800Y120650D03*
X279400Y120650D03*
X406400Y120650D03*
X381000Y120650D03*
X330200Y120650D03*
X355600Y120650D03*
X254000Y120650D03*
X254000Y44450D03*
X279400Y44450D03*
X304800Y44450D03*
X330200Y44450D03*
X355600Y44450D03*
X381000Y44450D03*
X406400Y44450D03*
X431800Y44450D03*
X457200Y44450D03*
X533400Y323850D03*
X558800Y323850D03*
X685800Y323850D03*
X711200Y323850D03*
X584200Y323850D03*
X609600Y323850D03*
X660400Y323850D03*
X635000Y323850D03*
X736600Y323850D03*
X736600Y400050D03*
X711200Y400050D03*
X685800Y400050D03*
X660400Y400050D03*
X635000Y400050D03*
X609600Y400050D03*
X584200Y400050D03*
X558800Y400050D03*
X533400Y400050D03*
D14*
X279400Y425450D03*
X304800Y425450D03*
X330200Y425450D03*
X355600Y425450D03*
X381000Y425450D03*
X406400Y425450D03*
X431800Y425450D03*
X457200Y425450D03*
X533400Y425450D03*
X558800Y425450D03*
X584200Y425450D03*
X609600Y425450D03*
X635000Y425450D03*
X660400Y425450D03*
X685800Y425450D03*
X711200Y425450D03*
X787400Y425450D03*
X812800Y425450D03*
X838200Y425450D03*
X863600Y425450D03*
X889000Y425450D03*
X914400Y425450D03*
X939800Y425450D03*
X965200Y425450D03*
D13*
X508000Y323850D03*
X508000Y400050D03*
X228600Y120650D03*
X228600Y44450D03*
X762000Y323850D03*
X762000Y400050D03*
X482600Y120650D03*
X482600Y44450D03*
X1016000Y323850D03*
X1016000Y400050D03*
X736600Y119380D03*
X736600Y43180D03*
D15*
X1041400Y425450D03*
D16*
X1066800Y425450D03*
X1092200Y425450D03*
X1117600Y425450D03*
X1143000Y425450D03*
D17*
X1350010Y373850D02*
X1367790Y373850D01*
X1367790Y313850D02*
X1350010Y313850D01*
X1309900Y334460D02*
X1309900Y352240D01*
D18*
X1295400Y255270D02*
X1295400Y240030D01*
X1320800Y240030D02*
X1320800Y255270D01*
X1346200Y255270D02*
X1346200Y240030D01*
D14*
X279400Y19050D03*
X304800Y19050D03*
X330200Y19050D03*
X355600Y19050D03*
X381000Y19050D03*
X406400Y19050D03*
X431800Y19050D03*
X457200Y19050D03*
X533400Y19050D03*
X558800Y19050D03*
X584200Y19050D03*
X609600Y19050D03*
X635000Y19050D03*
X660400Y19050D03*
X685800Y19050D03*
X711200Y19050D03*
X787400Y19050D03*
X812800Y19050D03*
X838200Y19050D03*
X863600Y19050D03*
X889000Y19050D03*
X914400Y19050D03*
X939800Y19050D03*
X965200Y19050D03*
D19*
X1117346Y165100D02*
X1130554Y165100D01*
X1130554Y190500D02*
X1117346Y190500D01*
X1054354Y190500D02*
X1041146Y190500D01*
X1041146Y165100D02*
X1054354Y165100D01*
X1117346Y215900D02*
X1130554Y215900D01*
X1130554Y241300D02*
X1117346Y241300D01*
X1054354Y215900D02*
X1041146Y215900D01*
X1041146Y241300D02*
X1054354Y241300D01*
D20*
X1200150Y243332D02*
X1200150Y226568D01*
X1225550Y226568D02*
X1225550Y243332D01*
X1250950Y243332D02*
X1250950Y226568D01*
D21*
X1225550Y410210D03*
D19*
X1263396Y196850D02*
X1276604Y196850D01*
X1200404Y196850D02*
X1187196Y196850D01*
D22*
X1237850Y171140D02*
X1237850Y159060D01*
X1187850Y159060D02*
X1187850Y171140D01*
D23*
X1332230Y158750D03*
D24*
X1296670Y158750D03*
D23*
X1421130Y158750D03*
D24*
X1385570Y158750D03*
D25*
X1422400Y285750D03*
X1295400Y285750D03*
D26*
X1403350Y196850D03*
X1428750Y196850D03*
X1047750Y273050D03*
X1073150Y273050D03*
D27*
X1295400Y196850D03*
X1371600Y196850D03*
D26*
X1047750Y101600D03*
X1123950Y101600D03*
X1047750Y76200D03*
X1123950Y76200D03*
D28*
X1060450Y31750D03*
X1085850Y31750D03*
X1111250Y31750D03*
D26*
X1047750Y133350D03*
X1073150Y133350D03*
D29*
X19050Y50800D03*
X19050Y393700D03*
X247650Y425450D03*
X247650Y19050D03*
X863600Y177800D03*
X965200Y266700D03*
X1212850Y31750D03*
X990600Y425450D03*
X1092200Y374650D03*
X1168400Y247650D03*
X1212850Y139700D03*
X1435100Y50800D03*
X1339850Y273050D03*
X1435100Y393700D03*
X158750Y349250D03*
X184150Y146050D03*
X184150Y69850D03*
X990600Y19050D03*
X482600Y425450D03*
X482600Y19050D03*
X1028700Y342900D03*
X279400Y196850D03*
X533400Y196850D03*
X304800Y184150D03*
X558800Y184150D03*
X330200Y171450D03*
X584200Y171450D03*
X355600Y158750D03*
X609600Y158750D03*
X381000Y247650D03*
X635000Y247650D03*
X406400Y260350D03*
X660400Y260350D03*
X431800Y273050D03*
X685800Y273050D03*
X457200Y285750D03*
X711200Y285750D03*
X101600Y133350D03*
X483870Y88900D03*
X246380Y88900D03*
X95250Y120650D03*
X184150Y120650D03*
X723900Y76200D03*
X95250Y95250D03*
X114300Y361950D03*
M02*
